<svg id="Layer_1" data-name="Layer 1" xmlns="http://www.w3.org/2000/svg" viewBox="0 0 56 64"><defs><style>.cls-1{fill:#f38230;}.cls-2{fill:#1d1d1b;}</style></defs><path d="M56,28.52A28.44,28.44,0,0,1,34.77,56.21L28,64l-6.77-7.79A28.44,28.44,0,0,1,0,28.52C0,12.83,12.48,0,28,0S56,12.83,56,28.52Z"/><rect class="cls-1" x="19.21" y="17.21" width="18.21" height="23.57"/><circle class="cls-2" cx="20.82" cy="18.82" r="0.54"/><circle class="cls-2" cx="30.46" cy="18.82" r="0.54"/><circle class="cls-2" cx="30.46" cy="26.32" r="0.54"/><circle class="cls-2" cx="20.82" cy="26.32" r="0.54"/><circle class="cls-2" cx="20.82" cy="34.89" r="0.54"/><circle class="cls-2" cx="30.46" cy="34.89" r="0.54"/><path class="cls-1" d="M36.36,41.86H20.29a2.15,2.15,0,0,1-2.15-2.15V18.29a2.15,2.15,0,0,1,2.15-2.15H36.36a2.14,2.14,0,0,1,2.14,2.15V39.71A2.14,2.14,0,0,1,36.36,41.86ZM20.29,17.75a.54.54,0,0,0-.54.54V39.71a.54.54,0,0,0,.54.54H36.36a.54.54,0,0,0,.53-.54V18.29a.54.54,0,0,0-.53-.54Z"/><path class="cls-2" d="M36.89,24.84H19.75a.66.66,0,0,1-.67-.66.67.67,0,0,1,.67-.67H36.89a.67.67,0,0,1,.67.67A.66.66,0,0,1,36.89,24.84Z"/><path class="cls-2" d="M28.32,40.92a.66.66,0,0,1-.66-.67V17.75a.66.66,0,0,1,.66-.67.67.67,0,0,1,.67.67v22.5A.67.67,0,0,1,28.32,40.92Z"/><path class="cls-2" d="M36.89,33.42H19.75a.67.67,0,0,1,0-1.34H36.89a.67.67,0,0,1,0,1.34Z"/></svg>